PathFileType	4	(X/Y/Z)	C:/Users/opensim2020/Desktop/walking_exp_matlab/subject06_walking22_straight_02.trc	
DataRate	CameraRate	NumFrames	NumMarkers	Units	OrigDataRate	OrigDataStartFrame	OrigNumFrames	
100.00	100.00	6	44	mm	100.00	1289	81	
Frame#	Time	LFHD			RFHD			LBHD			RBHD			C7			T10			CLAV			STRN			RBAK			LSHO			LUPA			LELB			LFRM			LWRA			LWRB			LFIN			RSHO			RUPA			RELB			RFRM			RWRA			RWRB			RFIN			LASI			RASI			LPSI			RPSI			LTHI			LKNE			LTIB			LANK			LHEE			LTOE			RTHI			RKNE			RTIB			RANK			RHEE			RTOE			*39			*40			*41			*42			*43			
		X1	Y1	Z1	X2	Y2	Z2	X3	Y3	Z3	X4	Y4	Z4	X5	Y5	Z5	X6	Y6	Z6	X7	Y7	Z7	X8	Y8	Z8	X9	Y9	Z9	X10	Y10	Z10	X11	Y11	Z11	X12	Y12	Z12	X13	Y13	Z13	X14	Y14	Z14	X15	Y15	Z15	X16	Y16	Z16	X17	Y17	Z17	X18	Y18	Z18	X19	Y19	Z19	X20	Y20	Z20	X21	Y21	Z21	X22	Y22	Z22	X23	Y23	Z23	X24	Y24	Z24	X25	Y25	Z25	X26	Y26	Z26	X27	Y27	Z27	X28	Y28	Z28	X29	Y29	Z29	X30	Y30	Z30	X31	Y31	Z31	X32	Y32	Z32	X33	Y33	Z33	X34	Y34	Z34	X35	Y35	Z35	X36	Y36	Z36	X37	Y37	Z37	X38	Y38	Z38	X39	Y39	Z39	X40	Y40	Z40	X41	Y41	Z41	X42	Y42	Z42	X43	Y43	Z43	X44	Y44	Z44	

31	0.300	-907.31116	302.87805	1654.35974	-1039.10461	289.93350	1655.37817	-925.53467	437.51297	1607.57678	-1053.61218	422.57837	1612.75708	-986.41418	437.82071	1452.75745	-1003.16351	479.35742	1126.42590	-989.81732	329.65466	1373.48608	-989.81427	293.94830	1197.31079	-1068.91199	515.79712	1287.66980	-827.13507	383.73611	1401.86328	-761.16809	396.95615	1197.90967	-753.88336	406.66357	1085.03687	-730.63458	377.50601	937.49622	-762.82666	300.71597	830.08502	-738.11566	366.65918	818.59027	-729.37488	317.74182	742.48169	-1148.64417	379.11710	1413.31934	-1248.21228	441.44925	1230.01038	-1269.25586	446.74158	1109.70105	-1292.33142	420.63251	994.52887	-1264.57288	340.59683	866.00165	-1304.68091	395.49786	859.89001	-1307.53760	347.88773	789.88214	-897.60876	304.81769	961.09949	-1115.79858	305.84290	969.32233	-922.59314	461.93234	989.34985	-1090.17651	455.22021	997.69751	-841.86426	297.00937	654.71075	-868.78729	239.18507	503.06326	-882.51154	362.94901	286.15195	-923.67365	437.58273	131.77335	-974.20123	475.46017	130.65756	-912.06451	320.49939	51.34401	-1161.39905	359.80795	630.92291	-1133.36792	356.89343	505.68420	-1130.67969	440.61951	250.32776	-1088.32764	494.50339	72.50150	-1047.56836	540.68799	50.38314	-1084.00732	347.29016	33.11167	-972.58679	394.68301	1703.08423												 
32	0.310	-906.02527	288.12637	1653.38220	-1037.70044	274.38187	1655.01563	-925.18304	422.51190	1606.63501	-1053.45007	407.29819	1612.63977	-986.86212	422.54694	1452.07971	-1004.38354	463.62036	1125.53174	-989.81543	314.34924	1372.91577	-990.19562	278.26855	1196.80591	-1070.23303	499.78702	1286.72290	-827.33252	369.26105	1400.95178	-761.20502	384.98593	1197.17773	-753.61261	396.30319	1084.68115	-729.43903	372.43414	936.36743	-760.50476	300.24179	825.56085	-736.30084	367.01474	816.92035	-726.95734	321.80289	738.69324	-1148.80017	363.08578	1413.25610	-1249.30188	423.06485	1229.74133	-1270.90479	426.96036	1109.71423	-1293.32190	396.68475	995.71747	-1263.87524	312.03586	870.63391	-1304.46191	365.97406	862.14838	-1306.51746	315.60706	794.19269	-898.45325	288.92319	960.98163	-1116.58411	290.58801	967.76764	-922.80481	446.23077	989.00281	-1090.53516	440.04971	996.63806	-841.19379	277.68115	656.65387	-868.18610	217.56059	505.75174	-882.09113	328.99295	280.77505	-923.58899	392.75500	121.53992	-974.61353	429.78070	117.53625	-910.31177	270.15222	49.98494	-1161.18250	349.72937	629.69092	-1133.89685	350.21960	504.27505	-1130.76294	437.91306	250.14400	-1088.14612	493.99545	73.00689	-1047.28809	540.33588	51.20628	-1084.03088	347.06570	32.81413	-971.60767	379.41977	1702.41248												 
33	0.320	-904.83337	273.36942	1652.15820	-1036.45679	258.95010	1654.34460	-924.88708	407.63116	1605.32324	-1052.61707	391.11996	1611.90173	-987.15625	407.08105	1451.02161	-1005.42511	447.88712	1124.27673	-989.75641	298.73343	1372.02234	-990.50507	262.58173	1195.87061	-1071.55859	483.90363	1285.42188	-827.50714	354.75226	1399.61462	-761.17883	372.89261	1196.07153	-753.30151	385.84543	1083.95288	-728.31708	367.34824	935.29077	-758.17023	299.80038	821.15778	-734.28369	366.97958	815.61920	-724.59009	325.36099	735.21954	-1148.83081	346.91483	1412.67993	-1250.56189	405.04715	1229.23853	-1272.51013	407.17932	1109.39404	-1294.21631	372.85547	996.71191	-1263.14453	283.53293	875.36353	-1304.10034	336.86493	864.45532	-1305.17932	283.52505	798.70123	-899.27399	273.04315	960.39948	-1117.12097	275.59000	965.87091	-922.84460	430.48178	988.23938	-1090.71484	425.05777	995.32245	-840.17029	258.25040	657.88013	-867.46851	196.95464	507.70334	-881.51062	294.71396	275.27185	-923.31561	346.61227	111.76546	-974.75818	383.11322	105.14973	-909.04095	219.50891	49.53537	-1160.87085	339.78311	628.34698	-1134.43701	343.43274	502.86334	-1130.90491	435.25418	249.99072	-1087.94543	493.46826	73.56613	-1047.04089	540.04462	52.25975	-1083.94165	346.82617	32.47616	-970.60236	364.44189	1701.45984												 
34	0.330	-903.67731	258.51300	1650.52563	-1035.14099	243.50462	1653.34314	-924.50311	392.57004	1603.69177	-1052.53979	376.06439	1610.84106	-987.43677	391.60855	1449.55200	-1006.26892	432.10120	1122.65540	-989.65149	283.16638	1370.74475	-990.79114	246.91203	1194.57373	-1072.81226	467.94736	1283.83118	-827.61847	340.06821	1397.91980	-761.11761	360.67975	1194.69165	-753.02936	375.54993	1082.93445	-727.13049	362.03839	934.02338	-755.86749	298.96487	817.13348	-732.07947	366.38104	814.36115	-722.35999	328.43024	732.17126	-1148.91040	330.85968	1411.77429	-1251.43079	387.15121	1228.11389	-1274.06287	387.42352	1108.73474	-1295.01746	349.11423	997.56757	-1262.15784	255.63588	880.10919	-1303.41809	308.15451	866.84766	-1303.81238	252.15273	803.28693	-900.00995	257.21945	959.37842	-1117.56140	260.70386	963.85352	-922.68622	414.74139	987.03052	-1090.75989	410.14050	993.76105	-839.25079	239.89156	658.45667	-866.66437	177.43661	508.83853	-880.43866	260.30746	269.65424	-922.41443	300.31229	102.88663	-974.01086	336.13608	93.73260	-908.46002	168.48970	50.14679	-1160.63708	329.76364	627.00537	-1134.95081	336.56570	501.46359	-1130.90393	432.59991	249.99693	-1087.62939	493.11191	74.38048	-1046.64380	539.75604	53.40380	-1083.95520	346.72855	32.17193	-969.67249	349.28049	1699.99524												 
35	0.340	-902.47693	243.74548	1648.70593	-1033.92383	228.10031	1652.04590	-924.17487	377.59027	1601.69263	-1052.07581	360.43201	1609.45129	-987.66064	376.13260	1447.97754	-1006.92065	416.57050	1120.85095	-989.59808	267.70486	1369.07471	-990.96100	231.29881	1192.89465	-1073.99927	452.04077	1281.98596	-827.63055	325.13309	1395.80664	-760.97992	348.28809	1192.92078	-752.71942	365.89371	1081.58069	-725.98761	356.78409	932.71826	-753.66150	297.88675	813.32965	-729.67065	365.20956	813.23608	-720.04694	330.81607	729.35547	-1148.96350	314.76141	1410.49426	-1252.58594	369.30914	1226.87781	-1275.54187	367.66507	1107.76404	-1295.68237	325.51572	998.23242	-1261.10974	228.08380	884.88898	-1302.85144	279.61362	869.23053	-1302.31714	220.92795	808.16345	-900.78326	241.32460	958.06360	-1118.05591	245.90976	961.69843	-922.41699	399.30130	985.61499	-1090.62183	395.24307	992.00378	-838.35773	222.24625	658.10449	-865.81927	158.71483	509.11771	-879.07574	225.73032	264.22668	-921.59753	253.12273	94.93015	-972.84790	288.87381	83.50070	-908.26709	118.08088	51.58915	-1160.45117	319.77286	625.63635	-1135.55164	329.65161	500.10339	-1130.80811	429.79868	250.08603	-1087.19775	492.61996	75.19049	-1045.88647	539.49078	54.78310	-1083.93652	346.70410	31.92726	-968.73859	334.35800	1698.34387												 
36	0.350	-901.39380	228.88481	1646.67883	-1032.67480	212.61049	1650.53711	-923.89429	362.66037	1599.50635	-1051.40479	344.42859	1607.61426	-987.74329	360.54285	1446.05396	-1007.16467	400.89435	1118.74609	-989.44427	252.06834	1367.14832	-991.11035	215.78807	1190.84888	-1075.06140	436.15314	1280.06384	-827.55383	310.03000	1393.38977	-760.80414	335.95721	1190.81531	-752.49780	356.17169	1080.03784	-724.85516	351.43237	931.29718	-751.60077	296.00385	809.88312	-727.51910	363.66211	812.28259	-717.82312	332.74329	726.91589	-1149.00452	298.73715	1409.00989	-1253.62256	351.45563	1225.31384	-1276.91785	348.02731	1106.52136	-1296.23169	302.15988	998.71564	-1259.78564	201.19737	889.43091	-1302.07422	251.37212	871.59430	-1300.56567	190.14862	813.03955	-901.38678	225.40208	956.46875	-1118.53247	231.16341	959.48926	-922.03516	383.59302	983.61725	-1090.34900	380.37915	990.03802	-837.86780	205.71153	656.95135	-865.18555	140.73334	508.66019	-877.78613	191.15219	259.30975	-920.44299	206.34296	88.33789	-971.37366	241.52577	74.66390	-908.17297	68.22482	54.09394	-1160.39063	309.42722	624.32367	-1136.23120	322.43588	498.84912	-1130.49854	426.95392	250.34656	-1086.47644	492.11792	76.40051	-1044.83960	539.05035	56.64847	-1083.86145	346.53836	31.59539	-967.86926	319.30289	1696.32129												 
